<svg width="169" height="169" viewBox="0 0 169 169" fill="none" xmlns="http://www.w3.org/2000/svg">
<path d="M168.99 71.1387C169.196 88.6457 166.095 106.47 160.145 122.809C148.939 145.441 134.852 151.004 119.577 157.758C79.2505 176.812 20.4262 175.6 5.25242 122.809C-3.62201 95.2709 -0.796131 73.481 10.3085 50.7114C20.8554 26.2308 42.673 11.519 54.6586 5.94272C96.7947 -13.2705 163.832 15.5853 168.99 71.1387Z" fill="white"/>
<mask id="mask0_316_4404" style="mask-type:alpha" maskUnits="userSpaceOnUse" x="0" y="0" width="169" height="169">
<path d="M168.99 71.1387C169.196 88.6457 166.095 106.47 160.145 122.809C148.939 145.441 134.852 151.004 119.577 157.758C79.2505 176.812 20.4262 175.6 5.25242 122.809C-3.62201 95.2709 -0.796131 73.481 10.3085 50.7114C20.8554 26.2308 42.673 11.519 54.6586 5.94272C96.7947 -13.2705 163.832 15.5853 168.99 71.1387Z" fill="white"/>
</mask>
<g mask="url(#mask0_316_4404)">
<path d="M54.5297 56.6931C49.7465 56.6657 44.0294 62.916 42.2238 70.9992C40.4181 79.0825 39.7988 89.9856 39.7988 89.9856C39.7988 89.9856 30.3271 107.37 30.3479 113.929C30.3688 120.487 30.3368 125.995 30.8517 128.631C31.2736 130.79 22.8276 145.657 19.0214 148.796C21.5459 158.564 23.5745 162.028 37.9886 171.219C47.6708 177.393 50.1176 183.221 57.4506 182.944L74.3553 154.244L60.0358 61.6626C60.0358 61.6626 59.313 56.7205 54.5297 56.6931Z" fill="#FFAA00"/>
<path d="M79.336 27.7901L33.3009 110.746C33.3009 110.746 26.4823 121.406 32.5592 125.107C38.6361 128.809 76.632 151.511 79.6559 153.795C82.6797 156.08 116.152 98.2045 121.943 87.3612C127.733 76.5179 137.954 58.9154 137.778 55.6149C137.602 52.314 136.086 51.8816 130.916 48.5362C125.746 45.1909 102.157 28.9062 96.802 27.0687C91.4471 25.2311 85.7669 20.5432 83.053 23.2628L81.7888 24.5292C80.8276 25.4935 80.0023 26.5893 79.336 27.7901Z" fill="#2B0200"/>
<path d="M44.6453 74.2193C43.4662 73.5011 43.0323 72.246 43.3578 70.4861C43.6297 69.0129 44.397 67.2735 45.1383 65.5914C45.6179 64.5049 46.1138 63.3806 46.47 62.3433C47.6983 58.7708 49.8851 56.4291 52.3199 56.0794C52.9964 55.9827 53.7445 56.2142 54.3726 56.7153C56.5276 58.4344 56.0029 61.109 55.4462 63.9396C55.326 64.5516 55.2014 65.1842 55.1042 65.8126C54.4851 69.7944 53.17 72.6299 51.4971 73.5924C51.3084 73.7016 51.118 73.8203 50.916 73.947C49.4911 74.8387 47.7187 75.9484 44.7504 74.2821C44.7149 74.2605 44.6799 74.2403 44.6453 74.2193ZM53.548 57.3419C53.2085 57.1351 52.8446 57.0447 52.5187 57.0913C50.4398 57.3895 48.536 59.497 47.4247 62.7285C47.0553 63.8043 46.5503 64.9474 46.0628 66.0523C44.4136 69.7912 43.4537 72.3309 45.1306 73.3534C45.1527 73.3669 45.1749 73.3804 45.1984 73.3936C47.6393 74.7642 49.017 73.9018 50.3495 73.0676C50.5491 72.943 50.7562 72.8136 50.9601 72.6962C52.3645 71.8884 53.5405 69.233 54.1072 65.5956C54.2083 64.9475 54.3345 64.3054 54.4564 63.684C54.9701 61.0677 55.4139 58.8083 53.7773 57.5037C53.7029 57.4433 53.626 57.3895 53.548 57.3419Z" fill="#502315"/>
<mask id="mask1_316_4404" style="mask-type:alpha" maskUnits="userSpaceOnUse" x="34" y="28" width="99" height="116">
<path d="M81.1464 31.067C81.1464 31.067 49.0167 89.4088 47.0372 92.4265C45.0572 95.4451 35.5886 112.962 34.9791 114.36C34.3702 115.757 33.0778 119.981 37.82 122.576C42.5623 125.171 52.2063 132.228 52.2063 132.228L85.7527 143.536L111.782 101.326C111.782 101.326 125.713 75.1799 126.203 74.2991C126.692 73.4183 136.13 59.4194 131.644 56.0962C127.158 52.7729 118.849 48.1501 114.208 44.4376C109.568 40.7255 101.343 35.7124 96.3563 33.5571C91.3686 31.4013 84.7947 24.4483 81.1464 31.067Z" fill="#F6EEE1"/>
</mask>
<g mask="url(#mask1_316_4404)">
<path d="M81.1464 31.067C81.1464 31.067 49.0167 89.4088 47.0372 92.4265C45.0572 95.4451 35.5886 112.962 34.9791 114.36C34.3702 115.757 33.0778 119.981 37.82 122.576C42.5623 125.171 52.2063 132.228 52.2063 132.228L85.7527 143.536L111.782 101.326C111.782 101.326 125.713 75.1799 126.203 74.2991C126.692 73.4183 136.13 59.4194 131.644 56.0962C127.158 52.7729 118.849 48.1501 114.208 44.4376C109.568 40.7255 101.343 35.7124 96.3563 33.5571C91.3686 31.4013 84.7947 24.4483 81.1464 31.067Z" fill="white"/>
</g>
<path d="M80.3784 82.1011L85.3279 73.5282C86.2386 71.9509 88.2556 71.4105 89.833 72.3212L92.3619 73.7863C93.9329 74.6975 94.4696 76.7086 93.5616 78.2814L92.508 80.1062C91.5973 81.6835 89.5803 82.224 88.003 81.3134L84.4263 79.2484" stroke="#939598" stroke-miterlimit="10" stroke-linecap="round" stroke-linejoin="round"/>
<path d="M95.9177 75.8337L97.0156 76.4675C97.6629 76.8412 97.8846 77.6689 97.5109 78.3162L93.8138 84.7197" stroke="#939598" stroke-miterlimit="10" stroke-linecap="round" stroke-linejoin="round"/>
<path d="M98.5254 76.0156L98.315 75.2302C98.2627 75.0354 98.3784 74.8351 98.5733 74.7829L99.3582 74.5726C99.5533 74.5203 99.7539 74.6361 99.8061 74.8312L100.016 75.6161C100.069 75.811 99.953 76.0113 99.7582 76.0635L98.9728 76.2739C98.7779 76.3262 98.5776 76.2105 98.5254 76.0156Z" fill="#32BCAD"/>
<path d="M100.298 78.3544L101.387 78.9831C101.947 79.3065 102.356 79.8391 102.523 80.4639L103.6 84.4812C103.739 85.0016 104.274 85.3104 104.794 85.1709L108.797 84.0985C109.422 83.9311 110.087 84.0188 110.648 84.3422L111.533 84.8533" stroke="#939598" stroke-miterlimit="10" stroke-linecap="round" stroke-linejoin="round"/>
<path d="M95.9531 85.88L97.042 86.5087C97.6021 86.8321 98.2678 86.9197 98.8925 86.7523L102.91 85.6758C103.43 85.5364 103.965 85.8452 104.105 86.3656L105.177 90.3682C105.345 90.993 105.753 91.5256 106.313 91.849L107.199 92.3601" stroke="#939598" stroke-miterlimit="10" stroke-linecap="round" stroke-linejoin="round"/>
<path d="M75.2045 76.0701C74.658 75.7546 74.2669 75.2451 74.1035 74.6357L73.2204 71.3402C73.1587 71.1085 72.9027 70.9613 72.6715 71.0233L69.364 71.9096C68.7545 72.0726 68.1177 71.9887 67.5712 71.6731L67.1595 71.4355L68.2778 75.6092C68.6271 76.9127 69.9669 77.6862 71.2704 77.337L75.4562 76.2155L75.2045 76.0701Z" fill="#32BCAD"/>
<path d="M71.8415 64.276C72.388 64.5915 72.7791 65.1011 72.9425 65.7105L73.8285 69.0183C73.8924 69.2565 74.1386 69.3995 74.3777 69.3351L77.6732 68.4519C78.2827 68.2887 78.9195 68.3727 79.466 68.6882L79.7177 68.8335L78.5961 64.6478C78.2468 63.3443 76.907 62.5707 75.6035 62.92L71.4299 64.0383L71.8415 64.276Z" fill="#32BCAD"/>
<path d="M80.6459 72.2955L79.9682 69.7661C79.9247 69.7598 79.8814 69.7466 79.841 69.7233L79.112 69.3024C78.735 69.0848 78.2778 69.0246 77.8576 69.1373L74.5621 70.0204C74.2538 70.103 73.9404 70.0526 73.6837 69.9044C73.4268 69.7561 73.2266 69.51 73.1439 69.2018L72.2576 65.894C72.1451 65.4737 71.8644 65.1079 71.4874 64.8902L70.5909 64.3726C70.5527 64.3506 70.5222 64.3209 70.4958 64.2887L67.9563 64.9692C66.6528 65.3184 65.8792 66.6582 66.2285 67.9618L66.9089 70.5012C66.95 70.508 66.991 70.5196 67.0292 70.5417L67.9257 71.0593C68.3027 71.2769 68.7599 71.337 69.1801 71.2243L72.4876 70.3381C73.0853 70.1782 73.746 70.5595 73.9058 71.1571L74.789 74.4524C74.9014 74.8727 75.1821 75.2386 75.5591 75.4562L76.2881 75.8771C76.3285 75.9005 76.3616 75.9313 76.3888 75.9659L78.9181 75.2882C80.2217 74.9388 80.9953 73.599 80.6459 72.2955Z" fill="#32BCAD"/>
<path d="M82.9753 82.6294C82.857 82.5611 82.7028 82.51 82.5485 82.4628L82.2469 82.9852C82.3214 83.0742 82.4195 83.1529 82.5229 83.2126C82.7848 83.3638 82.9601 83.3472 83.0932 83.1165C83.2185 82.8995 83.1729 82.7435 82.9753 82.6294ZM81.9346 83.322L82.531 82.289L82.6029 82.3305L82.5844 82.3798C82.7221 82.4214 82.9114 82.4807 83.0311 82.5499C83.1285 82.6061 83.2127 82.6745 83.2542 82.7824C83.3017 82.9077 83.2619 83.0423 83.1876 83.171C83.1097 83.3058 82.9913 83.4072 82.828 83.4066C82.7149 83.4052 82.5885 83.3581 82.4852 83.2985C82.3789 83.2371 82.2867 83.1618 82.1984 83.0691L82.0229 83.373L81.9346 83.322Z" fill="#939598"/>
<path d="M84.0288 83.2333C83.7667 83.082 83.6024 83.097 83.4693 83.3275C83.3405 83.5506 83.3979 83.7175 83.6614 83.8696C83.9218 84.02 84.0853 84.0065 84.2185 83.7759C84.3472 83.5529 84.2908 83.3845 84.0288 83.2333ZM83.9981 84.0641C83.8751 84.0767 83.748 84.0273 83.6147 83.9504C83.4785 83.8718 83.373 83.7848 83.3229 83.6742C83.266 83.5516 83.2912 83.4182 83.3715 83.2791C83.451 83.1413 83.5547 83.0516 83.6903 83.0379C83.8112 83.0259 83.9392 83.0739 84.0754 83.1526C84.2101 83.2304 84.3141 83.3163 84.3655 83.4277C84.4231 83.553 84.3957 83.6867 84.317 83.8229C84.2366 83.9622 84.1329 84.0521 83.9981 84.0641Z" fill="#939598"/>
<path d="M85.2041 84.8402L85.2743 84.0444L85.2682 84.0409L84.6187 84.5021L84.5394 84.4564L84.6645 83.5206L84.7618 83.5767L84.6544 84.3609L84.6604 84.3644L85.3082 83.8922L85.3891 83.9389L85.3116 84.7403L85.3176 84.7438L85.9371 84.2553L86.0313 84.3097L85.2834 84.8859L85.2041 84.8402Z" fill="#939598"/>
<path d="M86.562 84.694C86.3195 84.554 86.1749 84.6142 86.07 84.7613L86.7496 85.1537C86.8416 84.9774 86.806 84.8349 86.562 84.694ZM86.1441 85.4109C85.9988 85.3271 85.9167 85.2517 85.8782 85.1454C85.8338 85.0181 85.8679 84.8902 85.9413 84.763C86.0114 84.6416 86.1261 84.5363 86.2688 84.5208C86.3863 84.5108 86.5 84.5525 86.6077 84.6147C86.7051 84.6709 86.8114 84.7462 86.8678 84.8627C86.9348 84.999 86.8814 85.14 86.7967 85.2866L86.0212 84.8389C85.9343 84.9963 85.9057 85.1636 86.199 85.3329C86.3383 85.4134 86.4816 85.4659 86.615 85.5151L86.5692 85.5944C86.4303 85.5443 86.2773 85.4878 86.1441 85.4109Z" fill="#939598"/>
<path d="M86.8457 85.7878L87.2822 85.0318L87.3541 85.0733L87.3356 85.1226C87.5191 85.1746 87.6087 85.1924 87.7494 85.2736L87.7599 85.2797L87.7115 85.3636L87.6905 85.3515C87.5722 85.2832 87.491 85.258 87.2997 85.2056L86.9341 85.8389L86.8457 85.7878Z" fill="#939598"/>
<path d="M88.2275 85.6552C87.985 85.5152 87.8404 85.5754 87.7355 85.7225L88.4151 86.1149C88.5071 85.9385 88.4715 85.7961 88.2275 85.6552ZM87.8096 86.3721C87.6643 86.2882 87.5822 86.2129 87.5437 86.1066C87.4994 85.9793 87.5334 85.8514 87.6068 85.7241C87.6769 85.6028 87.7916 85.4975 87.9343 85.482C88.0518 85.472 88.1655 85.5137 88.2733 85.5759C88.3706 85.6321 88.4769 85.7074 88.5333 85.8239C88.6003 85.9602 88.5469 86.1012 88.4623 86.2478L87.6868 85.8001C87.5998 85.9575 87.5712 86.1248 87.8646 86.2941C88.0038 86.3745 88.1471 86.4271 88.2805 86.4763L88.2347 86.5556C88.0958 86.5055 87.9428 86.449 87.8096 86.3721Z" fill="#939598"/>
<path d="M89.5973 86.5161C89.523 86.4271 89.4247 86.3484 89.3214 86.2888C89.0594 86.1375 88.8841 86.1542 88.751 86.3847C88.6248 86.6032 88.6713 86.7577 88.8689 86.8718C88.9872 86.9401 89.1414 86.9912 89.2949 87.0399L89.5973 86.5161ZM89.2413 87.1708L89.2598 87.1215C89.1222 87.0799 88.9328 87.0206 88.8131 86.9514C88.7158 86.8953 88.6306 86.8282 88.59 86.7188C88.5426 86.5935 88.5823 86.459 88.6566 86.3302C88.7344 86.1955 88.8529 86.0941 89.0154 86.0961C89.1293 86.096 89.2557 86.1431 89.3605 86.2036C89.4654 86.2641 89.5567 86.3409 89.6458 86.4322L89.8454 86.0863L89.9338 86.1374L89.3132 87.2123L89.2413 87.1708Z" fill="#939598"/>
<path d="M91.0086 87.2672C90.8903 87.1989 90.7361 87.1478 90.5818 87.1006L90.281 87.6215C90.3561 87.7128 90.4528 87.7907 90.5562 87.8503C90.8181 88.0016 90.9934 87.985 91.1265 87.7543C91.2518 87.5373 91.2062 87.3813 91.0086 87.2672ZM90.8613 88.0444C90.7483 88.043 90.6218 87.9959 90.5185 87.9363C90.4062 87.8714 90.3052 87.7872 90.213 87.684L90.1877 87.7174L90.1278 87.6828L90.7484 86.6079L90.8367 86.659L90.6285 87.0197C90.7652 87.0629 90.9492 87.1211 91.0644 87.1877C91.1618 87.2439 91.246 87.3123 91.2875 87.4202C91.335 87.5455 91.2952 87.6801 91.2209 87.8088C91.143 87.9436 91.0245 88.0449 90.8613 88.0444Z" fill="#939598"/>
<path d="M90.9514 88.5456L90.9989 88.4634C91.0398 88.493 91.0785 88.5194 91.1069 88.5358C91.2162 88.5989 91.3002 88.6053 91.4334 88.5165L91.4963 88.4731L91.5377 87.4889L91.6395 87.5477L91.601 88.3957L91.607 88.3992L92.3057 87.9323L92.406 87.9902L91.4907 88.5936C91.3238 88.7029 91.2106 88.7053 91.0564 88.6163C91.022 88.5964 90.9863 88.5719 90.9514 88.5456Z" fill="#939598"/>
<path d="M93.4365 89.0182L93.1431 88.8488L92.99 89.1138L93.2849 89.2841C93.487 89.4008 93.5764 89.4222 93.6403 89.3116C93.7086 89.1931 93.6117 89.1193 93.4365 89.0182ZM93.6307 88.5573L93.3912 88.419L93.2356 88.6885L93.4766 88.8277C93.6757 88.9427 93.7688 88.9645 93.8336 88.8522C93.9028 88.7326 93.8103 88.661 93.6307 88.5573ZM93.6303 89.6092C93.4827 89.6158 93.3507 89.5436 93.1126 89.4061L92.665 89.1477L93.2571 88.1222L93.6943 88.3746C93.8994 88.493 94.0234 88.5685 94.0919 88.692C94.1408 88.7802 94.131 88.8663 94.0792 88.9561C94.0169 89.0638 93.9306 89.1098 93.7861 89.0903L93.7827 89.0961C93.8971 89.2023 93.9435 89.319 93.8597 89.4642C93.8027 89.5629 93.7295 89.6066 93.6303 89.6092Z" fill="#939598"/>
<path d="M94.777 89.9437C94.6929 89.8851 94.6058 89.8289 94.5114 89.7744C94.3572 89.6854 94.2851 89.6857 94.2446 89.756C94.2065 89.8219 94.2307 89.8838 94.3489 89.952C94.4477 90.0091 94.579 90.055 94.6923 90.0903L94.777 89.9437ZM94.6386 90.287L94.6586 90.2385C94.5117 90.1958 94.3421 90.1437 94.2103 90.0676C94.1295 90.0209 94.0487 89.9603 94.0133 89.8799C93.9798 89.8067 93.9908 89.7252 94.0349 89.6488C94.0842 89.5635 94.1674 89.5059 94.2805 89.5173C94.3815 89.5257 94.4895 89.5841 94.5869 89.6403C94.6662 89.6861 94.7699 89.7519 94.8548 89.8089L94.8626 89.7954C94.9308 89.6772 94.8754 89.5933 94.6628 89.4706C94.5805 89.4231 94.4777 89.3694 94.3767 89.3232L94.4648 89.1705C94.5762 89.223 94.6994 89.2861 94.7983 89.3432C94.93 89.4192 95.0602 89.5084 95.1095 89.6166C95.1608 89.7282 95.128 89.8231 95.0633 89.9352L94.8048 90.3829L94.6386 90.287Z" fill="#939598"/>
<path d="M95.7917 90.9529L96.033 90.5351C96.1124 90.3975 96.0706 90.3076 95.9448 90.2349C95.852 90.1813 95.7215 90.1378 95.6088 90.1048L95.2872 90.6617L95.0762 90.5398L95.5127 89.7837L95.6848 89.8831L95.6646 89.9352C95.8177 89.9779 95.9858 90.029 96.1086 90.1C96.2014 90.1535 96.288 90.2213 96.3227 90.3272C96.3513 90.4157 96.3308 90.5034 96.2685 90.6113L96.0014 91.074L95.7917 90.9529Z" fill="#939598"/>
<path d="M96.5858 91.4392C96.4885 91.383 96.3899 91.3082 96.3501 91.1973C96.3006 91.0689 96.3418 90.9351 96.4154 90.8077C96.4845 90.688 96.5986 90.5802 96.7562 90.5735C96.886 90.5664 97.0105 90.6205 97.1319 90.6906C97.2187 90.7407 97.3005 90.796 97.3897 90.8592L97.2963 91.021C97.2242 90.9695 97.1364 90.9107 97.0631 90.8684C96.8624 90.7526 96.7318 90.761 96.6315 90.9347C96.5373 91.0978 96.5671 91.2088 96.7317 91.3038C96.8275 91.3591 96.9502 91.4061 97.0716 91.4483L96.9818 91.6039C96.8496 91.5597 96.7071 91.5092 96.5858 91.4392Z" fill="#939598"/>
<path d="M97.947 91.3725C97.7463 91.2567 97.6216 91.2687 97.5222 91.4408C97.4228 91.613 97.4672 91.7366 97.6694 91.8533C97.8685 91.9682 97.9908 91.9568 98.0902 91.7846C98.1896 91.6125 98.1476 91.4884 97.947 91.3725ZM97.9859 92.1417C97.8569 92.1509 97.7261 92.0975 97.5778 92.0119C97.4266 91.9246 97.3158 91.8365 97.2599 91.7225C97.1948 91.5932 97.223 91.4578 97.3017 91.3216C97.3804 91.1852 97.4844 91.0916 97.629 91.0832C97.7557 91.0746 97.8873 91.1267 98.0385 91.214C98.1882 91.3004 98.2976 91.3875 98.355 91.5024C98.42 91.6317 98.3895 91.7678 98.3117 91.9025C98.233 92.0389 98.129 92.1325 97.9859 92.1417Z" fill="#939598"/>
<path d="M99.2994 93.006C99.1722 92.9326 99.0465 92.8322 98.9925 92.687C98.9286 92.5143 98.9819 92.3356 99.0796 92.1664C99.1668 92.0153 99.3184 91.8633 99.5391 91.8509C99.71 91.8419 99.8737 91.9144 100.029 92.0043C100.143 92.0701 100.256 92.1449 100.377 92.2289L100.271 92.4131C100.167 92.3409 100.036 92.2556 99.9314 92.1951C99.6394 92.0265 99.4511 92.0656 99.3146 92.3021C99.1753 92.5432 99.2284 92.7176 99.444 92.842C99.5847 92.9233 99.7584 92.9855 99.9361 93.0442L99.8307 93.2269C99.6537 93.1667 99.4685 93.1037 99.2994 93.006Z" fill="#939598"/>
<path d="M100.797 92.9861C100.622 92.885 100.518 92.9091 100.438 93.0166L100.947 93.3105C101.012 93.1842 100.972 93.0872 100.797 92.9861ZM100.383 93.6312C100.258 93.5595 100.155 93.4797 100.111 93.3623C100.064 93.2358 100.097 93.1053 100.172 92.9764C100.238 92.8612 100.35 92.7542 100.498 92.7397C100.629 92.7274 100.755 92.7823 100.875 92.8515C100.982 92.9137 101.103 92.9991 101.158 93.117C101.23 93.2724 101.165 93.4103 101.077 93.5668L100.358 93.1519C100.296 93.2698 100.314 93.3801 100.526 93.5028C100.658 93.5789 100.816 93.6442 100.952 93.6964L100.866 93.8446C100.707 93.7848 100.534 93.7185 100.383 93.6312Z" fill="#939598"/>
<path d="M101.826 94.4371L102.068 94.0192C102.147 93.8816 102.105 93.7917 101.979 93.719C101.887 93.6655 101.756 93.6219 101.643 93.5889L101.322 94.1458L101.111 94.0239L101.547 93.2679L101.72 93.3673L101.699 93.4194C101.852 93.4621 102.02 93.5132 102.143 93.5841C102.236 93.6376 102.323 93.7055 102.357 93.8114C102.386 93.8999 102.365 93.9876 102.303 94.0955L102.036 94.5581L101.826 94.4371Z" fill="#939598"/>
<path d="M102.625 94.9259C102.523 94.8671 102.447 94.785 102.442 94.6763C102.435 94.6008 102.46 94.5171 102.519 94.4153L102.682 94.1322L102.529 94.0441L102.62 93.887L102.773 93.9752L102.927 93.7591L103.115 93.8671L102.982 94.0962L103.28 94.2682L103.189 94.4253L102.892 94.2533L102.752 94.4959C102.718 94.5543 102.694 94.6063 102.689 94.6517C102.683 94.7156 102.721 94.7635 102.787 94.8016C102.836 94.8301 102.9 94.8571 102.946 94.8739L102.859 95.025C102.782 94.9989 102.695 94.9664 102.625 94.9259Z" fill="#939598"/>
<path d="M103.049 95.1432L103.486 94.3871L103.658 94.4865L103.638 94.5387C103.8 94.5803 103.92 94.61 104.052 94.6861C104.058 94.6895 104.067 94.6947 104.078 94.703L103.974 94.8827C103.951 94.8674 103.923 94.851 103.902 94.8389C103.798 94.7792 103.714 94.7462 103.583 94.7067L103.26 95.2651L103.049 95.1432Z" fill="#939598"/>
<path d="M104.581 95.6042C104.497 95.5457 104.41 95.4894 104.316 95.4349C104.161 95.3459 104.089 95.3462 104.049 95.4165C104.011 95.4824 104.035 95.5443 104.153 95.6125C104.252 95.6696 104.383 95.7155 104.497 95.7508L104.581 95.6042ZM104.443 95.9475L104.463 95.8991C104.316 95.8563 104.146 95.8042 104.015 95.7281C103.934 95.6815 103.853 95.6208 103.817 95.5404C103.784 95.4672 103.795 95.3857 103.839 95.3094C103.888 95.2241 103.972 95.1664 104.085 95.1778C104.186 95.1862 104.294 95.2446 104.391 95.3008C104.47 95.3466 104.574 95.4124 104.659 95.4695L104.667 95.4559C104.735 95.3377 104.68 95.2538 104.467 95.1311C104.385 95.0836 104.282 95.03 104.181 94.9837L104.269 94.831C104.38 94.8835 104.504 94.9466 104.602 95.0037C104.734 95.0797 104.864 95.1689 104.914 95.2771C104.965 95.3887 104.932 95.4836 104.867 95.5958L104.609 96.0435L104.443 95.9475Z" fill="#939598"/>
<path d="M105.501 95.1252L105.712 95.247L105.091 96.3219L104.88 96.2001L105.501 95.1252Z" fill="#939598"/>
<path d="M115.429 125.108C115.429 125.108 134.108 113.168 112.267 93.8061C90.4264 74.4438 81.1339 93.3255 89.4544 102.529C89.4544 102.529 80.2965 97.3504 77.5262 102.894C74.7555 108.439 75.7585 112.887 80.8153 118.183C80.8153 118.183 65.4188 110.867 60.9598 117.007C56.5007 123.147 62.6059 129.819 66.358 132.843C66.358 132.843 55.3709 127.624 51.9124 133.192C48.4539 138.76 61.5992 155.037 74.3387 159.258C87.0781 163.479 92.299 155.146 92.8094 150.144C92.8094 150.144 102.552 154.604 105.66 149.267C108.77 143.928 108.376 141.917 107.081 139.356C107.081 139.356 112.188 139.664 114.215 135.733C116.242 131.804 117.526 129.487 115.429 125.108Z" fill="#FFAA00"/>
<path d="M116.447 129.803C116.289 129.707 116.182 129.531 116.18 129.337C116.169 127.238 113.762 122.76 102.361 113.354C95.4627 107.662 88.4807 102.857 88.4117 102.809L88.2905 102.725L88.2256 102.592C86.5806 99.2003 85.8222 96.1474 85.9732 93.5176C86.1123 91.0796 87.0577 89.0521 88.7064 87.6556C90.7836 85.8957 93.9103 85.1882 97.5093 85.6621C101.242 86.1542 105.2 87.8403 108.956 90.536C112.847 93.3281 118.157 98.0109 121.363 104.461C123.296 108.349 123.543 111.017 123.552 111.127C123.577 111.411 123.37 111.649 123.09 111.656C122.81 111.664 122.564 111.44 122.54 111.156C122.537 111.13 122.29 108.538 120.432 104.822C118.716 101.391 115.237 96.2702 108.402 91.3647C104.79 88.7713 100.998 87.1529 97.4378 86.684C94.1151 86.2463 91.2553 86.8779 89.3853 88.4623C87.9194 89.7036 87.1133 91.4451 86.9877 93.6388C86.8498 96.0531 87.5504 98.8824 89.0686 102.052C90.0359 102.722 96.5421 107.265 102.974 112.572C112.393 120.344 117.179 126.003 117.197 129.394C117.199 129.678 116.973 129.896 116.692 129.881C116.603 129.875 116.52 129.847 116.447 129.803Z" fill="#502315"/>
<path d="M107.933 143.085C107.772 142.987 107.665 142.807 107.667 142.61C107.679 141.635 106.374 139.333 100.081 133.896C95.6883 130.101 90.2427 125.967 86.2665 122.948C84.162 121.35 82.4999 120.088 81.4914 119.259C76.5546 115.204 73.4395 108.163 77.0378 102.552C78.526 100.232 81.1091 99.3688 84.5083 100.055C86.997 100.558 89.0307 101.704 89.1154 101.752C89.3633 101.896 89.4678 102.211 89.341 102.457C89.215 102.704 88.9088 102.788 88.6581 102.644C88.6254 102.626 86.6622 101.524 84.3429 101.061C81.3409 100.461 79.1734 101.164 77.8994 103.15C75.4216 107.013 76.0697 113.517 82.1021 118.473C83.0951 119.289 84.7497 120.545 86.8439 122.135C90.8321 125.162 96.2942 129.31 100.713 133.128C107.888 139.325 108.698 141.55 108.684 142.683C108.681 142.967 108.45 143.181 108.168 143.16C108.084 143.154 108.004 143.128 107.933 143.085Z" fill="#502315"/>
<path d="M81.4634 144.329C68.6325 136.513 61.1732 129.678 59.2409 123.949C58.4823 121.701 58.5807 119.613 59.5315 117.742C60.5502 115.739 62.3438 114.492 64.863 114.039C66.8201 113.687 69.2181 113.816 71.9922 114.422C76.6657 115.442 80.7513 117.438 80.9224 117.523C81.1802 117.649 81.3012 117.96 81.19 118.214C81.0796 118.47 80.7803 118.573 80.5216 118.446C80.3599 118.367 64.3363 110.596 60.4419 118.257C59.6177 119.877 59.5374 121.697 60.2022 123.668C61.3842 127.173 64.9009 131.236 70.6538 135.745C76.1359 140.042 83.6554 144.746 93.0041 149.725C93.2589 149.86 93.3684 150.174 93.2495 150.425C93.1306 150.676 92.8275 150.769 92.5728 150.633C88.5085 148.467 84.8035 146.364 81.4634 144.329Z" fill="#502315"/>
<path d="M69.4759 157.994C67.7934 156.968 62.5791 153.464 57.984 149.136C55.2254 146.538 53.148 144.072 51.8082 141.807C50.1236 138.959 49.5927 136.401 50.2305 134.204C50.8621 132.029 52.1214 130.56 53.9737 129.839C56.0259 129.039 58.7352 129.169 62.0254 130.225C64.4403 131 66.2455 131.989 66.3216 132.031C66.5749 132.169 66.6789 132.484 66.5568 132.732C66.4348 132.98 66.1304 133.068 65.8781 132.928C65.8074 132.89 58.8024 129.08 54.3843 130.803C52.8194 131.414 51.751 132.673 51.2057 134.548C49.9159 138.987 54.5416 144.532 58.6503 148.401C63.3091 152.789 68.6015 156.312 70.0895 157.199C70.0913 157.2 70.0922 157.201 70.094 157.202C70.3386 157.351 70.4308 157.665 70.3008 157.906C70.1699 158.149 69.8622 158.226 69.6143 158.078C69.5723 158.053 69.525 158.024 69.4759 157.994Z" fill="#502315"/>
<path d="M101.698 104.881C100.117 103.918 98.5953 102.675 97.3113 101.287C95.7396 99.5887 94.7122 97.8614 94.4916 96.5487C94.3043 95.4305 94.5651 92.6429 96.5665 91.1606C98.7264 89.5607 102.142 89.8837 106.721 92.1207C110.573 94.0031 113.134 96.143 114.336 98.4823C115.731 101.197 114.885 104.396 112.37 105.922C110.572 107.014 107.491 107.845 103.017 105.612C102.574 105.392 102.134 105.147 101.698 104.881ZM108.634 94.2997C107.931 93.8711 107.161 93.4523 106.326 93.0439C102.174 91.0148 99.0184 90.6561 97.1978 92.004C95.5693 93.2104 95.346 95.5528 95.4942 96.4353C95.9438 99.121 100.051 103.01 103.421 104.692C107.477 106.717 110.222 105.993 111.81 105.029L112.09 105.476L111.81 105.029C113.884 103.771 114.584 101.141 113.44 98.9132C112.601 97.282 110.989 95.7348 108.634 94.2997Z" fill="#502315"/>
<path d="M87.3723 119.099C87.0354 118.894 86.6937 118.669 86.3453 118.424C82.0182 115.381 78.1246 111.937 78.9351 107.383C79.3667 104.959 81.4388 103.295 83.8632 103.427C86.2234 103.556 88.8572 104.811 91.6938 107.161C93.9119 108.998 96.5613 111.923 96.5908 115.432C96.6078 117.455 95.74 118.749 95.6105 118.931C95.4916 119.119 94.7127 120.262 93.0007 120.588C91.3882 120.896 89.4985 120.395 87.3723 119.099ZM79.9368 107.625C79.367 110.828 81.3813 113.715 86.8907 117.588C89.1823 119.2 91.1464 119.869 92.7309 119.579C94.1389 119.321 94.721 118.381 94.7447 118.34L94.773 118.298C94.7797 118.288 95.6076 117.141 95.5743 115.32C95.5296 112.892 93.976 110.341 91.0795 107.941C88.4262 105.744 86.0007 104.57 83.8698 104.455C81.9359 104.35 80.2822 105.684 79.9368 107.625Z" fill="#502315"/>
<path d="M69.39 130.403C68.9056 130.108 68.4093 129.774 67.9016 129.4C63.7464 126.347 63.1513 122.75 63.1671 120.877C63.1798 119.308 64.0924 117.965 65.4917 117.457C68.2188 116.466 71.4928 117.85 73.7589 119.184C78.2999 121.858 80.3261 123.689 80.7529 125.508C81.0814 126.906 80.3839 128.096 79.7404 128.977C77.1135 132.567 73.7171 133.04 69.39 130.403ZM64.1831 120.949C64.1665 122.983 64.8947 125.957 68.4643 128.579C71.0316 130.465 73.268 131.274 75.1091 130.985C76.5235 130.763 77.766 129.895 78.9098 128.331C79.6927 127.261 79.9476 126.471 79.7642 125.689C79.4233 124.238 77.427 122.505 73.2871 120.068C69.5303 117.855 67.1877 117.956 65.884 118.43C64.8602 118.802 64.1926 119.791 64.1831 120.949Z" fill="#5C2212"/>
<path d="M60.1092 143.447C59.6016 143.137 59.0893 142.758 58.574 142.31C57.0939 141.022 55.9452 139.774 55.1602 138.602C54.4204 137.497 54.3079 136.155 54.859 135.011C55.4087 133.871 56.4974 133.181 57.7722 133.166C59.4423 133.147 61.3295 133.771 63.3826 135.022C66.0076 136.622 67.5115 138.292 67.8517 139.985C68.132 141.379 67.4985 142.285 67.3898 142.427C67.2675 142.599 66.0451 144.241 63.8481 144.45C62.6422 144.563 61.3891 144.227 60.1092 143.447ZM55.9906 138.059C56.7204 139.15 57.804 140.323 59.2092 141.545C60.7886 142.92 62.2941 143.552 63.6819 143.425C65.5069 143.258 66.5451 141.805 66.5556 141.79L66.5776 141.762C66.5947 141.739 67.0655 141.123 66.8507 140.106C66.6516 139.164 65.8038 137.669 62.8981 135.899C61.0185 134.753 59.3178 134.18 57.8447 134.198C56.9408 134.209 56.1682 134.699 55.7781 135.508C55.3856 136.32 55.4653 137.274 55.9906 138.059Z" fill="#502315"/>
</g>
</svg>
