<svg width="170" height="172" viewBox="0 0 170 172" fill="none" xmlns="http://www.w3.org/2000/svg">
<path d="M169.99 72.0213C170.197 89.7455 167.078 107.79 161.092 124.333C149.82 147.246 135.65 152.878 120.284 159.715C79.7194 179.006 20.5471 177.779 5.2835 124.333C-3.64344 96.4529 -0.800842 74.3927 10.3695 51.3405C20.9789 26.5562 42.9255 11.6619 54.982 6.01645C97.3674 -13.4351 164.802 15.7787 169.99 72.0213Z" fill="white"/>
<mask id="mask0_316_4352" style="mask-type:alpha" maskUnits="userSpaceOnUse" x="0" y="0" width="170" height="172">
<path d="M169.99 72.0213C170.197 89.7455 167.078 107.79 161.092 124.333C149.82 147.246 135.65 152.878 120.284 159.715C79.7194 179.006 20.5471 177.779 5.2835 124.333C-3.64344 96.4529 -0.800842 74.3927 10.3695 51.3405C20.9789 26.5562 42.9255 11.6619 54.982 6.01645C97.3674 -13.4351 164.802 15.7787 169.99 72.0213Z" fill="white"/>
</mask>
<g mask="url(#mask0_316_4352)">
<path d="M39.8195 68.1069C34.735 70.3855 31.2137 80.1035 32.5866 89.9738C33.9594 99.8441 37.7376 112.281 37.7376 112.281C37.7376 112.281 34.763 136.207 37.4528 143.498C40.1425 150.788 42.3492 156.936 43.9675 159.622C45.2933 161.822 44.0264 165.584 41.2664 170.916C49.8885 175.996 59.6309 179.504 70.1577 180.987C78.572 182.173 86.8613 181.978 94.7987 180.578L100.528 167.134L47.6808 70.9813C47.6808 70.9813 44.9039 65.8284 39.8195 68.1069Z" fill="#FF8732"/>
<path d="M54.2081 24.8856L38.214 138.305C38.214 138.305 35.1758 153.315 43.3111 154.461C51.4464 155.608 102.13 162.291 106.36 163.348C110.59 164.406 123.224 84.6242 125.068 69.908C126.912 55.1918 130.798 30.9073 129.25 27.361C127.701 23.8145 125.873 24.0689 118.871 22.8775C111.87 21.686 79.5027 15.1274 72.9196 15.6838C66.3365 16.2402 58.2274 13.8175 56.392 18.1158L55.5369 20.1176C54.8873 21.6411 54.4397 23.2439 54.2081 24.8856Z" fill="#502314"/>
<mask id="mask1_316_4352" style="mask-type:alpha" maskUnits="userSpaceOnUse" x="41" y="21" width="85" height="132">
<path d="M57.5314 27.6312C57.5314 27.6312 46.6055 107.297 45.6952 111.57C44.7848 115.845 41.6978 139.678 41.6103 141.51C41.523 143.34 41.8553 148.61 48.0749 149.179C54.2944 149.748 67.6744 152.863 67.6744 152.863L108.773 149.133L119.701 90.154C119.701 90.154 124.09 54.6773 124.26 53.4724C124.43 52.2675 128.93 32.3189 122.689 30.8254C116.448 29.3319 105.52 28.2515 98.9511 26.4042C92.3837 24.5571 81.3857 23.0069 75.0813 23.0395C68.7757 23.072 58.7745 18.5919 57.5314 27.6312Z" fill="#F6EEE1"/>
</mask>
<g mask="url(#mask1_316_4352)">
<path d="M57.5314 27.6312C57.5314 27.6312 46.6055 107.297 45.6952 111.57C44.7848 115.845 41.6978 139.678 41.6103 141.51C41.523 143.34 41.8553 148.61 48.0749 149.179C54.2944 149.748 67.6744 152.863 67.6744 152.863L108.773 149.133L119.701 90.154C119.701 90.154 124.09 54.6773 124.26 53.4724C124.43 52.2675 128.93 32.3189 122.689 30.8254C116.448 29.3319 105.52 28.2515 98.9511 26.4042C92.3837 24.5571 81.3857 23.0069 75.0813 23.0395C68.7757 23.072 58.7745 18.5919 57.5314 27.6312Z" fill="#F7F5F0"/>
<path d="M102.46 80.1863C102.446 80.1645 102.439 80.1523 102.46 80.1863C102.478 80.2 102.547 80.1043 102.46 80.1863Z" fill="#502314"/>
</g>
<g clip-path="url(#clip0_316_4352)">
<path d="M106.325 87.5172C105.54 86.7382 104.283 86.0703 102.41 85.8048C99.0548 85.3289 95.4824 87.0032 94.7771 91.977C94.1026 96.7327 97.0562 99.4215 100.282 99.879C103.667 100.359 106.112 98.5545 106.549 95.4713C106.825 93.5225 105.807 91.9984 103.373 91.6532L102.668 91.5531C101.4 91.3734 100.336 91.8308 100.151 93.1397C99.9816 94.3323 100.967 95.0506 101.759 95.1629C102.148 95.2181 102.405 95.3732 102.362 95.6786C102.308 96.0567 101.812 96.2387 101.322 96.1692C99.695 95.9384 98.745 94.6614 99.0399 92.5816C99.3679 90.2692 101 89.6401 102.166 89.8056C103.592 90.0078 103.719 90.7677 104.713 90.9086C105.865 91.072 106.777 90.2369 106.913 89.2772C107.014 88.5644 106.776 87.9669 106.325 87.5172Z" fill="#D62300"/>
<path d="M86.1037 92.0969L85.6582 95.2383C85.4581 96.649 84.4929 97.6546 83.0094 97.4442C81.5261 97.2338 80.8784 95.9995 81.0784 94.5888L82.3531 85.6012C82.5573 84.1613 83.5555 83.1308 85.0677 83.3453C85.975 83.4739 86.7176 83.9354 87.2685 85.5416L88.7134 89.7522C88.7854 89.97 88.8616 90.055 88.9768 90.0713C89.1351 90.0938 89.238 89.9897 89.2751 89.7279L89.7206 86.5866C89.9207 85.1758 90.8861 84.1704 92.3694 84.3808C93.8529 84.5912 94.5005 85.8254 94.3005 87.2362L93.0258 96.2239C92.8216 97.6638 91.8235 98.6942 90.3113 98.4797C89.4327 98.3551 88.6612 97.8896 88.1103 96.2835L86.6654 92.0728C86.5935 91.855 86.5174 91.77 86.4022 91.7536C86.2437 91.7311 86.1408 91.8352 86.1037 92.0969Z" fill="#D62300"/>
<path d="M66.0346 92.4109L66.3274 90.3458C66.3522 90.1712 66.4428 90.0506 66.6156 90.0751C66.846 90.1078 66.8706 90.3487 66.9117 90.4732C67.1295 91.32 67.8531 93.1584 68.6037 94.2885C69.1137 95.0433 69.8028 95.5713 70.595 95.6837C71.9342 95.8736 73.2247 94.8548 73.4042 93.5896C73.5155 92.8044 73.2668 92.1756 72.7321 91.3876C72.0514 90.3861 71.2658 89.0879 70.9965 88.5008C70.8958 88.2788 70.9 88.1458 70.9083 88.0877C70.931 87.9276 71.0339 87.8237 71.2293 87.6883C71.6862 87.3672 72.814 86.5628 73.4829 85.7825C73.9934 85.1872 74.2509 84.6154 74.321 84.121C74.5004 82.8557 73.5029 81.7054 72.2644 81.5298C71.4722 81.4174 70.6594 81.7621 70.0378 82.5194C69.2042 83.5288 68.2161 84.6942 67.6255 85.1297C67.4773 85.2421 67.4011 85.2611 67.3004 85.2468C67.1276 85.2223 67.072 85.0956 67.0988 84.9067L67.3051 83.4523C67.5072 82.0271 66.8349 80.7597 65.3226 80.5452C63.796 80.3287 62.8122 81.3612 62.61 82.7865L61.3395 91.7452C61.1374 93.1704 61.7954 94.4358 63.322 94.6523C64.8342 94.8667 65.8324 93.8362 66.0346 92.4109Z" fill="#D62300"/>
<path d="M104.404 101.977C105.24 102.095 105.556 102.556 105.455 103.268C105.278 104.519 103.893 106.103 101.464 107.064C97.4169 108.671 90.907 108.371 82.0208 107.111C73.1349 105.85 66.7984 104.329 63.357 101.66C61.2918 100.061 60.4016 98.1548 60.579 96.9041C60.68 96.1913 61.1123 95.8373 61.9476 95.9558L104.404 101.977Z" fill="#FF8732"/>
<path d="M108.342 74.2141L65.885 68.1929C65.0497 68.0744 64.7371 67.585 64.8485 66.7996C65.5085 62.1458 73.6011 54.9113 89.1119 57.111C104.479 59.2903 110.385 68.5102 109.725 73.164C109.613 73.9493 109.177 74.3325 108.342 74.2141Z" fill="#FF8732"/>
<path d="M104.77 79.6116C104.525 79.5769 104.431 79.4151 104.458 79.226L104.598 78.2371C104.625 78.048 104.76 77.919 105.005 77.9537L105.207 77.9823C105.812 78.0681 105.937 78.531 105.883 78.9091C105.832 79.2726 105.577 79.726 104.972 79.6402L104.77 79.6116ZM94.1448 74.6629C93.6038 74.1263 92.8016 73.6713 91.5344 73.4916C89.302 73.175 86.917 74.35 86.4302 77.7822C85.9641 81.069 87.9223 82.9044 90.0681 83.2087C92.3291 83.5294 93.9613 82.2774 94.2624 80.154C94.4542 78.8015 93.7797 77.7563 92.1667 77.5276L91.7058 77.4622C90.8561 77.3417 90.1358 77.6549 90.0059 78.5711C89.8904 79.3856 90.5405 79.8783 91.0734 79.9539C91.3469 79.9927 91.5073 80.1045 91.4784 80.3081C91.4413 80.5699 91.1142 80.7014 90.7685 80.6524C89.6884 80.4992 89.0632 79.6243 89.2674 78.1845C89.4942 76.5848 90.585 76.146 91.3627 76.2563C92.3132 76.3911 92.4015 76.9081 93.064 77.0021C93.8272 77.1103 94.4366 76.5439 94.5314 75.8749C94.6015 75.3805 94.439 74.9716 94.1448 74.6629ZM99.0645 80.6865L98.0707 80.5456C97.8258 80.5109 97.69 80.6401 97.6632 80.8291L97.624 81.1054C97.5972 81.2944 97.6918 81.4562 97.9366 81.491L99.2327 81.6748C100.039 81.7892 100.605 82.3589 100.483 83.217C100.359 84.0896 99.6576 84.4796 98.8511 84.3652L96.1293 83.9792C94.9915 83.8178 94.5391 83.0712 94.667 82.1695L95.5765 75.7559C95.7044 74.8543 96.3466 74.2629 97.4844 74.4242L100.206 74.8102C101.013 74.9246 101.578 75.4944 101.457 76.3525C101.333 77.2251 100.631 77.6152 99.8246 77.5008L98.5285 77.317C98.2837 77.2822 98.1479 77.4113 98.1211 77.6004L98.0881 77.8331C98.0613 78.0221 98.1559 78.1839 98.4007 78.2186L99.3945 78.3596C100.086 78.4576 100.573 78.9569 100.468 79.6987C100.363 80.4405 99.7556 80.7845 99.0645 80.6865ZM101.152 83.1636C101.028 84.0362 101.433 84.8058 102.355 84.9365C103.277 85.0672 103.88 84.4406 104.003 83.5679L104.222 82.0264C104.249 81.8373 104.348 81.7623 104.492 81.7827C104.664 81.8072 104.708 81.9172 104.712 82.0958C104.736 82.8559 104.939 83.9084 105.256 84.4726C105.653 85.1965 106.085 85.4655 106.546 85.5309C107.295 85.6371 108.027 85.1327 108.133 84.391C108.203 83.8965 108.053 83.5043 107.841 83.133C107.44 82.4382 107.195 81.9881 107.08 81.4525C107.054 81.3301 107.097 81.2324 107.241 81.149C107.737 80.8632 108.364 80.166 108.538 78.9443C108.8 77.0973 107.436 75.8358 105.607 75.5764L103.98 75.3456C102.842 75.1842 102.2 75.7756 102.072 76.6772L101.152 83.1636L101.152 83.1636ZM78.8145 79.9957C78.6907 80.8683 79.0958 81.6379 80.0176 81.7686C80.9393 81.8993 81.5423 81.2727 81.6661 80.4001L81.8847 78.8585C81.9115 78.6694 82.0103 78.5944 82.1544 78.6149C82.3272 78.6394 82.3704 78.7493 82.3744 78.9279C82.3988 79.688 82.6021 80.7405 82.9188 81.3047C83.3157 82.0287 83.7476 82.2976 84.2084 82.363C84.9574 82.4692 85.6901 81.9648 85.7953 81.2231C85.8654 80.7286 85.7152 80.3364 85.5035 79.9651C85.1643 79.3533 84.8578 78.8202 84.7429 78.2846C84.7161 78.1622 84.7593 78.0645 84.9034 77.9811C85.3994 77.6953 86.0272 76.9981 86.2004 75.7764C86.4624 73.9294 85.0986 72.6679 83.2696 72.4085L81.6422 72.1777C80.5044 72.0163 79.8622 72.6077 79.7344 73.5093L78.8145 79.9957ZM82.4329 76.4437C82.188 76.409 82.0935 76.2472 82.1203 76.0582L82.2605 75.0692C82.2873 74.8802 82.4232 74.7511 82.668 74.7858L82.8696 74.8144C83.4746 74.9002 83.5998 75.3631 83.5462 75.7412C83.4946 76.1048 83.2394 76.5581 82.6345 76.4723L82.4329 76.4437ZM66.5368 75.7175L66.796 75.7543C67.4873 75.8523 67.6229 76.3463 67.5631 76.768C67.5095 77.1461 67.2315 77.6556 66.5403 77.5575L66.281 77.5208C66.0362 77.486 65.9416 77.3243 65.9684 77.1353L66.1293 76.0009C66.1561 75.8119 66.2919 75.6828 66.5368 75.7175ZM66.7842 73.9724C66.5394 73.9377 66.4448 73.7758 66.4716 73.5868L66.6119 72.5978C66.6387 72.4087 66.7745 72.2797 67.0194 72.3144L67.2066 72.341C67.8259 72.4288 67.9512 72.8917 67.8976 73.2698C67.8481 73.6188 67.5907 74.0868 66.9715 73.999L66.7842 73.9724ZM64.7619 79.5307L66.7926 79.8187C68.708 80.0903 70.0581 78.9614 70.2871 77.3471C70.4706 76.0528 69.7919 75.3483 69.6397 75.1783C69.5759 75.11 69.5122 75.0416 69.5204 74.9834C69.5307 74.9107 69.5781 74.8877 69.6624 74.8107C69.9814 74.5295 70.3273 74.0593 70.4325 73.3176C70.68 71.5724 69.6454 70.4762 67.8308 70.2188L66.117 69.9758C64.9792 69.8144 64.3371 70.4059 64.2092 71.3075L63.2996 77.7211C63.1718 78.6228 63.6241 79.3693 64.7619 79.5307ZM74.0984 80.9291C71.7653 80.5982 70.7412 79.0138 70.9929 77.2395L71.6879 72.3385C71.8117 71.4659 72.4147 70.8393 73.3364 70.97C74.2582 71.1007 74.6776 71.8724 74.5539 72.7449L73.8815 77.486C73.832 77.8351 73.947 78.2668 74.4656 78.3403C74.984 78.4139 75.2434 78.0353 75.2929 77.6861L75.9653 72.9451C76.089 72.0725 76.692 71.4459 77.6138 71.5766C78.5355 71.7074 78.9406 72.4769 78.8169 73.3495L78.1218 78.2506C77.8701 80.025 76.4315 81.2599 74.0984 80.9291Z" fill="#D62300"/>
<path d="M80.6596 85.5242C80.8762 83.997 80.1709 82.6509 78.5579 82.4222C76.945 82.1934 75.8932 83.2903 75.6766 84.8175L74.4556 93.4271C74.239 94.9542 74.9443 96.3002 76.5573 96.529C78.1703 96.7578 79.2221 95.6608 79.4386 94.1338L80.6596 85.5242Z" fill="#D62300"/>
<path d="M102.593 108.765C102.648 108.375 102.995 108.09 103.406 108.148C103.817 108.207 104.07 108.576 104.015 108.967C103.955 109.387 103.613 109.647 103.202 109.589C102.79 109.531 102.534 109.181 102.593 108.765ZM103.86 108.945C103.911 108.584 103.661 108.334 103.385 108.295C103.109 108.256 102.799 108.426 102.748 108.787C102.694 109.163 102.947 109.403 103.222 109.442C103.498 109.482 103.807 109.321 103.86 108.945ZM103.014 109.139L103.1 108.529C103.106 108.489 103.145 108.455 103.184 108.461L103.387 108.489C103.547 108.512 103.644 108.626 103.625 108.757C103.609 108.87 103.533 108.958 103.384 108.962L103.518 109.166C103.53 109.182 103.537 109.203 103.535 109.218C103.529 109.262 103.496 109.287 103.452 109.281C103.423 109.277 103.406 109.259 103.394 109.238L103.218 108.954L103.193 108.95L103.164 109.16C103.158 109.199 103.119 109.229 103.076 109.223C103.037 109.217 103.008 109.178 103.014 109.139ZM103.319 108.829C103.406 108.841 103.461 108.804 103.469 108.745C103.478 108.682 103.44 108.641 103.362 108.63L103.241 108.613L103.213 108.813L103.319 108.829Z" fill="#D62300"/>
</g>
<path d="M133.241 114.914C133.241 114.914 148.649 92.8165 116.978 82.0546C85.3072 71.2926 82.9453 96.5 95.7593 102.606C95.7593 102.606 83.6845 101.323 82.9456 108.745C82.2064 116.167 85.1193 120.571 92.7851 123.955C92.7851 123.955 73.0542 123.324 70.7241 132.213C68.3941 141.101 77.7634 145.493 83.0803 147.01C83.0803 147.01 69.0009 146.562 67.5237 154.34C66.0466 162.119 87.0029 173.675 102.578 172.183C118.152 170.692 120.412 159.03 118.917 153.29C118.917 153.29 131.333 153.504 132.524 146.146C133.716 138.787 132.464 136.768 130.006 134.578C130.006 134.578 135.683 132.459 136.276 127.167C136.868 121.877 137.314 118.714 133.241 114.914Z" fill="#FF8732"/>
<path d="M135.904 119.244C135.694 119.215 135.506 119.074 135.426 118.863C134.558 116.575 130.132 112.835 113.979 108.014C104.205 105.096 94.7017 103.186 94.6075 103.167L94.4426 103.134L94.3183 103.02C91.1586 100.101 89.0952 97.1286 88.1869 94.1834C87.3439 91.4533 87.5396 88.786 88.7525 86.4715C90.2803 83.555 93.371 81.286 97.4536 80.0819C101.688 78.8337 106.653 78.7817 111.81 79.9299C117.152 81.1187 124.798 83.694 130.891 89.2065C134.564 92.5292 135.919 95.3254 135.974 95.4421C136.116 95.7406 135.989 96.0992 135.689 96.241C135.39 96.3829 135.033 96.2562 134.891 95.9578C134.878 95.9305 133.554 93.2173 130.033 90.0467C126.78 87.1185 120.934 83.1893 111.549 81.1001C106.588 79.9953 101.831 80.0415 97.7927 81.2325C94.0235 82.3441 91.1902 84.4023 89.8148 87.028C88.7363 89.0854 88.5746 91.3737 89.3326 93.8304C90.1672 96.5339 92.0771 99.2898 95.0093 102.026C96.3277 102.296 105.21 104.146 114.323 106.866C127.668 110.85 135.146 114.743 136.548 118.439C136.665 118.749 136.51 119.095 136.2 119.212C136.102 119.248 136 119.258 135.904 119.244Z" fill="#502314"/>
<path d="M132.218 138.087C132.004 138.056 131.815 137.912 131.737 137.696C131.353 136.627 129.006 134.739 120 131.814C113.712 129.771 106.15 127.862 100.628 126.467C97.7057 125.73 95.3974 125.146 93.9711 124.724C86.9904 122.657 80.76 116.465 82.3593 108.627C83.021 105.387 85.4578 103.212 89.4066 102.338C92.2978 101.698 94.9601 101.978 95.0711 101.99C95.3974 102.028 95.6383 102.321 95.6016 102.65C95.5661 102.979 95.2697 103.217 94.9407 103.181C94.8977 103.176 92.3301 102.912 89.6379 103.514C86.153 104.293 84.0995 106.094 83.5327 108.868C82.4314 114.265 85.7798 121.049 94.31 123.574C95.7142 123.99 98.012 124.571 100.92 125.305C106.458 126.703 114.044 128.62 120.369 130.673C130.638 134.008 132.418 136.047 132.864 137.29C132.977 137.602 132.814 137.945 132.502 138.056C132.409 138.09 132.312 138.1 132.218 138.087Z" fill="#502314"/>
<path d="M104.315 152.319C87.2881 149.919 76.4561 146.026 72.0381 140.704C70.3042 138.616 69.56 136.293 69.8242 133.801C70.1074 131.132 71.5349 128.918 74.0687 127.223C76.037 125.906 78.6768 124.903 81.9165 124.24C87.3745 123.123 92.5957 123.35 92.8146 123.361C93.1443 123.376 93.4014 123.657 93.3851 123.987C93.3699 124.318 93.0892 124.574 92.7584 124.559C92.5514 124.549 72.0981 123.721 71.0161 133.928C70.7867 136.087 71.4413 138.109 72.9609 139.939C75.6637 143.196 81.1127 145.947 89.1563 148.118C96.8209 150.186 106.85 151.727 118.965 152.696C119.294 152.721 119.54 153.011 119.514 153.341C119.488 153.672 119.199 153.918 118.869 153.891C113.602 153.468 108.748 152.943 104.315 152.319Z" fill="#502314"/>
<path d="M97.1309 173.288C94.8938 172.972 87.8279 171.639 81.0956 169.107C77.0543 167.589 73.803 165.887 71.4313 164.053C68.4493 161.746 66.8327 159.204 66.6271 156.497C66.4238 153.817 67.1869 151.608 68.8958 149.933C70.7888 148.076 73.771 146.92 77.7589 146.499C80.6859 146.19 83.041 146.407 83.1402 146.416C83.4702 146.446 83.7109 146.74 83.6802 147.07C83.6494 147.4 83.3561 147.642 83.0264 147.61C82.9343 147.602 73.8074 146.791 69.7327 150.79C68.2893 152.207 67.6475 154.096 67.8219 156.406C68.2361 161.876 75.4973 165.723 81.5167 167.985C88.3421 170.551 95.5 171.868 97.4704 172.125C97.4728 172.125 97.474 172.125 97.4764 172.126C97.8017 172.172 98.0295 172.471 97.9872 172.797C97.9446 173.125 97.6431 173.356 97.3149 173.314C97.2591 173.306 97.1962 173.297 97.1309 173.288Z" fill="#502314"/>
<path d="M109.808 98.9604C107.707 98.6643 105.557 98.0344 103.605 97.1333C101.215 96.0301 99.4012 94.6353 98.6281 93.3072C97.9703 92.1758 97.1165 89.0071 98.675 86.4314C100.357 83.6516 104.179 82.3708 110.037 82.6239C114.965 82.8378 118.603 83.9499 120.855 85.9295C123.468 88.2275 123.857 92.1248 121.761 94.9941C120.263 97.0456 117.273 99.4267 111.53 99.1282C110.963 99.099 110.387 99.0421 109.808 98.9604ZM112.991 84.0887C112.057 83.9569 111.054 83.8677 109.986 83.8212C104.674 83.5907 101.118 84.7081 99.7006 87.0506C98.4326 89.1466 99.1455 91.8112 99.6651 92.704C101.245 95.4218 107.266 97.7051 111.593 97.93C116.799 98.2014 119.469 96.0984 120.793 94.2862L121.277 94.6401L120.793 94.2862C122.521 91.9208 122.206 88.7143 120.062 86.8286C118.491 85.4486 116.12 84.5297 112.991 84.0887Z" fill="#502314"/>
<path d="M100.317 121.63C99.8692 121.567 99.4085 121.485 98.9322 121.384C93.0177 120.13 87.4084 118.232 86.429 112.871C85.9075 110.017 87.4684 107.209 90.1414 106.193C92.7439 105.206 96.1009 105.317 100.123 106.526C103.268 107.472 107.322 109.399 108.783 113.217C109.625 115.418 109.215 117.246 109.149 117.507C109.097 117.769 108.721 119.39 107.004 120.564C105.387 121.671 103.142 122.028 100.317 121.63ZM87.6098 112.656C88.2988 116.426 91.6509 118.615 99.1812 120.211C102.314 120.875 104.708 120.666 106.302 119.592C107.718 118.637 107.964 117.331 107.973 117.276L107.986 117.216C107.989 117.202 108.417 115.554 107.639 113.581C106.601 110.95 103.884 108.908 99.7771 107.673C96.0153 106.542 92.9166 106.42 90.5673 107.313C88.4354 108.124 87.1921 110.371 87.6098 112.656Z" fill="#502314"/>
<path d="M85.6849 142.857C85.0414 142.766 84.3691 142.639 83.6682 142.473C77.9351 141.127 75.8271 137.483 75.0812 135.43C74.4555 133.71 74.8946 131.807 76.1995 130.583C78.7424 128.197 82.8433 128.142 85.8352 128.515C91.8307 129.264 94.766 130.295 95.968 132.077C96.8925 133.447 96.6235 135.079 96.287 136.349C94.9114 141.527 91.4343 143.667 85.6849 142.857ZM76.208 135.023C77.0187 137.252 79.0171 140.152 83.9416 141.307C87.4839 142.14 90.23 141.954 92.1014 140.758C93.5389 139.838 94.5278 138.296 95.1267 136.042C95.5368 134.499 95.4904 133.514 94.9736 132.748C94.014 131.325 91.1514 130.388 85.6854 129.706C80.7253 129.087 78.2352 130.317 77.0195 131.458C76.0649 132.354 75.7464 133.753 76.208 135.023Z" fill="#502314"/>
<path d="M81.0935 161.821C80.4191 161.726 79.7114 161.558 78.9719 161.314C76.8483 160.615 75.0992 159.802 73.7736 158.897C72.5242 158.045 71.8562 156.633 71.9858 155.121C72.1149 153.613 73.0102 152.34 74.381 151.713C76.1774 150.894 78.4706 150.674 81.1981 151.058C84.6855 151.55 86.9904 152.654 88.0474 154.339C88.9184 155.728 88.603 157.021 88.5435 157.228C88.481 157.473 87.8297 159.851 85.5411 161.129C84.2846 161.829 82.7939 162.061 81.0935 161.821ZM74.4496 157.908C75.6823 158.75 77.3307 159.513 79.3468 160.176C81.6128 160.921 83.4965 160.891 84.9441 160.089C86.8476 159.035 87.3774 156.952 87.3828 156.931L87.3948 156.889C87.4042 156.856 87.6617 155.958 87.0154 154.951C86.4167 154.018 84.8919 152.79 81.0317 152.246C78.5346 151.894 76.464 152.082 74.8797 152.805C73.9076 153.249 73.2727 154.154 73.1811 155.224C73.0877 156.298 73.5626 157.302 74.4496 157.908Z" fill="#502314"/>
</g>
<defs>
<clipPath id="clip0_316_4352">
<rect width="45.3254" height="50.5552" fill="white" transform="translate(66.6768 53.9082) rotate(8.07186)"/>
</clipPath>
</defs>
</svg>
